<svg width="375" height="341" viewBox="0 0 375 341" fill="none" xmlns="http://www.w3.org/2000/svg">
<g clip-path="url(#clip0_3_1105)">
<path d="M102.027 71H99.0783V56.9082H102.027V62.7285H102.516L107.389 56.9082H110.719L105.016 63.5879L111.178 71H107.516L102.516 64.9844H102.027V71ZM112.593 74.418V60.5312H115.445V62.3574H115.503C116.079 61.0879 117.212 60.3164 118.706 60.3164C121.363 60.3164 122.974 62.3477 122.974 65.7559V65.7656C122.974 69.1641 121.363 71.2148 118.745 71.2148C117.241 71.2148 116.07 70.4531 115.503 69.2129H115.445V74.418H112.593ZM117.759 68.8516C119.185 68.8516 120.074 67.6699 120.074 65.7656V65.7559C120.074 63.8418 119.175 62.6797 117.759 62.6797C116.382 62.6797 115.425 63.8711 115.425 65.7656V65.7754C115.425 67.6602 116.382 68.8516 117.759 68.8516ZM129.75 71.2148C126.537 71.2148 124.594 69.1348 124.594 65.7852V65.7754C124.594 62.4453 126.557 60.3164 129.633 60.3164C132.7 60.3164 134.614 62.3965 134.614 65.5605V66.4395H127.407C127.446 68.1094 128.354 69.0859 129.809 69.0859C130.981 69.0859 131.694 68.4414 131.889 67.8555L131.909 67.7969H134.526L134.506 67.9043C134.174 69.4473 132.729 71.2148 129.75 71.2148ZM129.682 62.4453C128.5 62.4453 127.631 63.2266 127.446 64.6426H131.879C131.704 63.1973 130.854 62.4453 129.682 62.4453ZM138.246 73.7832H135.648V68.8125H136.449C137.21 68.3828 137.503 67.2109 137.601 65.7949L137.943 60.5312H146.322V68.8125H147.884V73.7832H145.287V71H138.246V73.7832ZM143.47 68.8125V62.7188H140.345L140.111 65.9805C140.042 67.1035 139.818 68.041 139.33 68.7539V68.8125H143.47ZM149.553 71V60.5312H152.356V67.0645H152.454L156.585 60.5312H159.378V71H156.575V64.3789H156.467L152.346 71H149.553ZM170.295 60.5312V62.6895H167.179V71H164.328V62.6895H161.213V60.5312H170.295ZM178.985 71V66.7129H174.981V71H172.13V60.5312H174.981V64.5547H178.985V60.5312H181.837V71H178.985ZM184.268 71V60.5312H187.119V63.5586H189.15C191.621 63.5586 193.203 65.0039 193.203 67.2695V67.2891C193.203 69.5547 191.621 71 189.15 71H184.268ZM194.316 71V60.5312H197.168V71H194.316ZM188.633 65.707H187.119V68.8516H188.633C189.658 68.8516 190.303 68.2363 190.303 67.2891V67.2695C190.303 66.3125 189.658 65.707 188.633 65.707ZM204.56 59.4473C202.284 59.4473 200.859 58.2168 200.859 56.2734V56.1758H202.997V56.2637C202.997 57.084 203.573 57.7773 204.569 57.7773C205.546 57.7773 206.132 57.084 206.132 56.2637V56.1758H208.28V56.2734C208.28 58.2168 206.845 59.4473 204.56 59.4473ZM199.589 71V60.5312H202.392V67.0645H202.489L206.62 60.5312H209.413V71H206.61V64.3789H206.503L202.382 71H199.589ZM220.056 66.1465C219.87 69.1738 219.099 71.0977 216.531 71.0977C216.003 71.0977 215.632 71.0195 215.466 70.9707V68.5781C215.583 68.6074 215.779 68.6367 216.042 68.6367C217.058 68.6367 217.4 67.7871 217.507 65.9121L217.82 60.5312H226.003V71H223.152V62.6895H220.271L220.056 66.1465ZM228.444 71V60.5312H231.247V67.0645H231.344L235.475 60.5312H238.268V71H235.465V64.3789H235.358L231.237 71H228.444ZM243.384 71H240.699V60.5312H244.4L247.125 67.3672H247.193L249.918 60.5312H253.58V71H250.894V63.998H250.826L248.121 70.4141H246.148L243.453 63.998H243.384V71ZM256.02 71V60.5312H258.823V67.0645H258.921L263.051 60.5312H265.844V71H263.042V64.3789H262.934L258.813 71H256.02ZM276.762 60.5312V62.6895H273.646V71H270.795V62.6895H267.68V60.5312H276.762Z" fill="#9299A2" style="fill:#9299A2;fill:color(display-p3 0.5725 0.6000 0.6353);fill-opacity:1;"/>
</g>
<g clip-path="url(#clip1_3_1105)">
<path d="M57.474 130.492C55.3881 130.492 53.9584 129.086 53.9584 126.953V102.742H53.8177L48.8724 106.188C48.2162 106.656 47.724 106.82 46.9974 106.82C45.5677 106.82 44.5131 105.789 44.5131 104.289C44.5131 103.211 44.9349 102.414 46.0365 101.641L52.7396 97C54.3802 95.875 55.5052 95.6641 56.9584 95.6641C59.4662 95.6641 60.9662 97.1875 60.9662 99.625V126.953C60.9662 129.086 59.5599 130.492 57.474 130.492ZM88.4169 130.492C86.4716 130.492 85.0654 129.297 85.0654 127.047V123.789H72.456C69.9013 123.789 68.1904 122.195 68.1904 119.828C68.1904 118.375 68.6122 117.062 69.6669 115.211C71.9872 111.039 75.3622 105.883 79.0419 100.422C81.3857 96.8359 83.0966 95.6641 85.956 95.6641C89.5419 95.6641 91.7919 97.6094 91.7919 100.773V118.141H93.7138C95.5888 118.141 96.6201 119.312 96.6201 120.977C96.6201 122.641 95.5654 123.789 93.7138 123.789H91.7919V127.047C91.7919 129.297 90.3622 130.492 88.4169 130.492ZM85.206 118.328V101.312H85.0654C80.2372 108.273 77.1201 113.031 74.3779 118.141V118.328H85.206ZM123.232 130.75C117.865 130.75 113.178 128.242 111.49 124.656C111.139 123.906 110.928 123.18 110.928 122.336C110.928 120.531 112.053 119.453 113.881 119.453C115.287 119.453 116.178 119.945 116.975 121.211C118.193 123.648 120.186 125.125 123.232 125.125C126.912 125.125 129.561 122.477 129.561 118.82C129.561 115.258 126.936 112.727 123.256 112.727C121.24 112.727 119.553 113.594 118.357 114.742C116.975 116.031 116.272 116.383 114.701 116.383C112.381 116.383 111.279 114.766 111.373 112.867C111.373 112.773 111.373 112.703 111.397 112.586L112.381 100.188C112.615 97.3281 114.092 96.1797 116.834 96.1797H131.67C133.428 96.1797 134.576 97.2812 134.576 98.9922C134.576 100.703 133.451 101.805 131.67 101.805H118.311L117.514 111.203H117.654C119.037 109.023 121.803 107.664 125.248 107.664C131.717 107.664 136.311 112.211 136.311 118.656C136.311 125.875 130.943 130.75 123.232 130.75ZM153.871 130.75C145.785 130.75 140.16 126.695 140.16 120.836C140.16 116.383 143.441 113.102 148.058 112.211V112.07C144.074 111.086 141.379 108.203 141.379 104.523C141.379 99.2734 146.535 95.4297 153.871 95.4297C161.207 95.4297 166.34 99.25 166.34 104.547C166.34 108.18 163.668 111.062 159.707 112.07V112.211C164.324 113.125 167.582 116.406 167.582 120.859C167.582 126.719 161.933 130.75 153.871 130.75ZM153.871 109.938C157.058 109.938 159.355 108.016 159.355 105.25C159.355 102.461 157.058 100.539 153.871 100.539C150.66 100.539 148.386 102.461 148.386 105.25C148.386 108.016 150.66 109.938 153.871 109.938ZM153.871 125.594C157.597 125.594 160.175 123.391 160.175 120.32C160.175 117.273 157.597 115.094 153.871 115.094C150.144 115.094 147.543 117.273 147.543 120.32C147.543 123.391 150.144 125.594 153.871 125.594ZM175.556 130C173.329 130 172.228 128.758 172.228 126.977C172.228 125.641 172.743 124.75 174.173 123.438L184.251 113.805C188.423 109.797 189.501 108.156 189.501 105.719C189.501 102.93 187.345 100.938 184.322 100.938C181.603 100.938 179.728 102.297 178.509 105.016C177.712 106.422 176.892 107.078 175.368 107.078C173.47 107.078 172.345 105.953 172.345 104.195C172.345 103.656 172.439 103.164 172.603 102.672C173.751 98.9219 177.993 95.4297 184.392 95.4297C191.564 95.4297 196.392 99.4609 196.392 105.273C196.392 109.398 194.376 111.977 188.845 117.203L181.532 124.234V124.375H194.282C196.111 124.375 197.212 125.477 197.212 127.188C197.212 128.852 196.111 130 194.282 130H175.556ZM217.918 130.492C215.926 130.492 214.684 129.25 214.684 127.609C214.684 126.789 214.871 126.156 215.293 125.383L227.809 101.945V101.805H213.231C211.543 101.805 210.301 100.68 210.301 98.9688C210.301 97.2812 211.543 96.1797 213.231 96.1797H230.739C233.2 96.1797 234.957 97.6328 234.957 100.047C234.957 101.312 234.535 102.438 233.621 104.219L221.082 128.43C220.309 129.93 219.442 130.492 217.918 130.492ZM251.861 130.75C245.416 130.75 241.455 127.961 239.861 124.633C239.486 123.859 239.322 123.109 239.322 122.406C239.322 120.578 240.494 119.43 242.439 119.43C243.846 119.43 244.736 119.992 245.439 121.281C246.635 123.648 248.463 125.055 251.978 125.055C255.447 125.055 257.838 123.039 257.838 120.227C257.861 116.945 255.447 115.117 251.346 115.117H249.869C248.158 115.117 247.174 114.109 247.174 112.586C247.174 111.109 248.158 110.078 249.869 110.078H251.252C254.791 110.078 257.088 108.156 257.088 105.391C257.088 102.672 255.26 100.867 251.838 100.867C248.978 100.867 247.244 102.062 246.143 104.453C245.369 106.047 244.549 106.633 242.955 106.633C240.986 106.633 239.978 105.484 239.978 103.773C239.978 102.977 240.143 102.297 240.494 101.5C241.994 98.1953 245.838 95.4297 251.814 95.4297C258.963 95.4297 263.791 98.9688 263.791 104.383C263.791 108.672 260.721 111.484 256.736 112.305V112.445C261.775 112.914 265.033 115.867 265.033 120.531C265.033 126.672 259.713 130.75 251.861 130.75ZM281.843 130.492C279.757 130.492 278.328 129.086 278.328 126.953V102.742H278.187L273.242 106.188C272.585 106.656 272.093 106.82 271.367 106.82C269.937 106.82 268.882 105.789 268.882 104.289C268.882 103.211 269.304 102.414 270.406 101.641L277.109 97C278.749 95.875 279.874 95.6641 281.328 95.6641C283.835 95.6641 285.335 97.1875 285.335 99.625V126.953C285.335 129.086 283.929 130.492 281.843 130.492ZM303.018 124.891C302.268 124.891 301.823 124.422 301.823 123.719C301.823 123.016 302.268 122.547 303.018 122.547H306.581V117.906H303.018C302.245 117.906 301.799 117.414 301.799 116.688C301.799 115.984 302.245 115.492 303.018 115.492H306.581V100.445C306.581 98.125 307.893 96.7656 310.12 96.7656H319.589C326.198 96.7656 330.604 101.172 330.604 107.359C330.604 113.477 325.987 117.906 319.237 117.906H313.471V122.547H321.37C322.12 122.547 322.565 123.016 322.565 123.719C322.565 124.422 322.12 124.891 321.37 124.891H313.471V126.906C313.471 129.109 312.135 130.445 310.026 130.445C307.893 130.445 306.581 129.109 306.581 126.906V124.891H303.018ZM313.471 112.656H317.503C321.51 112.656 323.62 110.664 323.62 107.43C323.62 104.219 321.534 102.227 317.526 102.227H313.471V112.656Z" fill="url(#paint0_linear_3_1105)"/>
</g>
<g clip-path="url(#clip2_3_1105)">
<rect x="62" y="149" width="251" height="36" rx="18" fill="#001024" fill-opacity="0.03" style="fill:#001024;fill:color(display-p3 0.0000 0.0627 0.1412);fill-opacity:0.03;"/>
<g clip-path="url(#clip3_3_1105)">
<path d="M80 157C81.3132 157 82.6136 157.259 83.8268 157.761C85.0401 158.264 86.1425 159 87.0711 159.929C87.9997 160.858 88.7362 161.96 89.2388 163.173C89.7413 164.386 90 165.687 90 167C90 168.313 89.7413 169.614 89.2388 170.827C88.7362 172.04 87.9997 173.142 87.0711 174.071C86.1425 175 85.0401 175.736 83.8268 176.239C82.6136 176.741 81.3132 177 80 177C78.6868 177 77.3864 176.741 76.1732 176.239C74.9599 175.736 73.8575 175 72.9289 174.071C72.0003 173.142 71.2637 172.04 70.7612 170.827C70.2587 169.614 70 168.313 70 167C70 165.687 70.2587 164.386 70.7612 163.173C71.2638 161.96 72.0003 160.858 72.9289 159.929C73.8575 159 74.9599 158.264 76.1732 157.761C77.3864 157.259 78.6868 157 80 157L80 157Z" stroke="#001024" stroke-opacity="0.06" style="stroke:#001024;stroke:color(display-p3 0.0000 0.0627 0.1412);stroke-opacity:0.06;" stroke-width="4" stroke-linecap="round" stroke-linejoin="round"/>
<path d="M80 157C81.8506 157 83.6649 157.514 85.241 158.483C86.8171 159.453 88.0931 160.842 88.9271 162.494C89.761 164.146 90.1202 165.997 89.9646 167.841C89.809 169.685 89.1447 171.45 88.0457 172.939C86.9467 174.428 85.4561 175.582 83.7398 176.274C82.0234 176.966 80.1487 177.169 78.3243 176.859C76.4998 176.548 74.7972 175.738 73.406 174.518C72.0147 173.298 70.9893 171.715 70.444 169.947" stroke="#428BF9" style="stroke:#428BF9;stroke:color(display-p3 0.2588 0.5451 0.9765);stroke-opacity:1;" stroke-width="4" stroke-linecap="round" stroke-linejoin="round"/>
</g>
<path d="M102.584 172V162.84H106.412C108.151 162.84 109.198 163.716 109.198 165.119V165.132C109.198 166.09 108.487 166.941 107.567 167.087V167.201C108.798 167.315 109.649 168.204 109.649 169.391V169.404C109.649 171.01 108.456 172 106.5 172H102.584ZM106.012 164.116H104.222V166.7H105.802C106.964 166.7 107.58 166.249 107.58 165.417V165.405C107.58 164.592 107.002 164.116 106.012 164.116ZM106.063 167.861H104.222V170.724H106.126C107.332 170.724 107.973 170.223 107.973 169.29V169.277C107.973 168.35 107.313 167.861 106.063 167.861ZM113.847 172.146C112.273 172.146 111.023 171.435 110.87 170.089L110.864 170.032H112.4L112.413 170.077C112.559 170.61 113.086 170.921 113.828 170.921C114.691 170.921 115.199 170.521 115.199 169.95V169.937C115.199 169.321 114.717 169.01 113.822 169.01H112.825V167.944H113.816C114.622 167.944 115.003 167.614 115.003 167.042V167.03C115.003 166.528 114.615 166.147 113.835 166.147C113.124 166.147 112.648 166.471 112.552 166.973L112.546 167.004H111.048L111.054 166.954C111.213 165.741 112.184 164.922 113.885 164.922C115.529 164.922 116.545 165.665 116.545 166.839V166.852C116.545 167.582 116.082 168.147 115.333 168.318V168.426C116.297 168.617 116.767 169.175 116.767 169.95V169.962C116.767 171.251 115.631 172.146 113.847 172.146ZM122.133 172V169.664H121.232L119.607 172H117.804L119.664 169.404C118.718 169.125 118.141 168.382 118.141 167.43V167.417C118.141 165.97 119.207 165.062 120.826 165.062H123.689V172H122.133ZM120.946 168.502H122.133V166.274H120.946C120.185 166.274 119.721 166.719 119.721 167.411V167.423C119.721 168.045 120.191 168.502 120.946 168.502ZM127.677 168.998C127.544 170.997 126.928 172.063 125.519 172.063C125.234 172.063 125.024 172.019 124.923 171.987V170.629C124.992 170.648 125.164 170.673 125.342 170.673C125.976 170.673 126.198 169.867 126.262 168.871L126.503 165.062H131.48V172H129.899V166.287H127.874L127.677 168.998ZM133.45 172V165.062H135.012V169.708H135.138L138.065 165.062H139.626V172H138.065V167.328H137.931L135.012 172H133.45ZM148.416 172.229C146.461 172.229 144.76 170.838 144.76 167.538V167.525C144.76 164.44 146.15 162.612 148.455 162.612C150.137 162.612 151.394 163.608 151.686 165.011L151.698 165.081H150.092L150.067 165.018C149.826 164.376 149.261 163.958 148.455 163.958C147.001 163.958 146.385 165.379 146.315 167.131C146.315 167.201 146.309 167.271 146.309 167.341H146.436C146.772 166.617 147.572 165.976 148.829 165.976C150.587 165.976 151.819 167.258 151.819 168.998V169.01C151.819 170.87 150.403 172.229 148.416 172.229ZM146.595 169.029C146.595 170.077 147.388 170.896 148.404 170.896C149.419 170.896 150.219 170.089 150.219 169.067V169.055C150.219 167.995 149.464 167.233 148.423 167.233C147.388 167.233 146.595 167.982 146.595 169.017V169.029ZM152.824 174.418L153.377 170.604H155.008L153.903 174.418H152.824ZM161.187 172V170.242H156.705V168.902C157.892 166.839 159.193 164.732 160.438 162.84H162.755V168.89H163.986V170.242H162.755V172H161.187ZM158.229 168.928H161.212V164.148H161.117C160.177 165.583 159.117 167.277 158.229 168.833V168.928ZM170.574 172H169.063V165.062H171.075L173.125 169.893H173.24L175.296 165.062H177.27V172H175.76V167.265H175.639L173.728 171.689H172.598L170.694 167.265H170.574V172ZM181.259 168.998C181.126 170.997 180.51 172.063 179.101 172.063C178.815 172.063 178.606 172.019 178.504 171.987V170.629C178.574 170.648 178.745 170.673 178.923 170.673C179.558 170.673 179.78 169.867 179.844 168.871L180.085 165.062H185.061V172H183.481V166.287H181.456L181.259 168.998ZM191.539 172V169.036H188.612V172H187.032V165.062H188.612V167.811H191.539V165.062H193.119V172H191.539ZM197.986 170.597V169.854H199.218V168.674H197.986V167.931H199.218V163.031H202.506C204.277 163.031 205.432 164.211 205.432 165.849V165.862C205.432 167.506 204.233 168.674 202.443 168.674H200.818V169.854H203.293V170.597H200.818V171.81H199.218V170.597H197.986ZM200.818 167.398H202.043C203.211 167.398 203.807 166.827 203.807 165.875V165.862C203.807 164.922 203.217 164.345 202.049 164.345H200.818V167.398Z" fill="#428BF9" style="fill:#428BF9;fill:color(display-p3 0.2588 0.5451 0.9765);fill-opacity:1;"/>
<path d="M210.312 172V165.062H211.874V169.708H212.001L214.927 165.062H216.489V172H214.927V167.328H214.794L211.874 172H210.312ZM221.061 172.146C219.487 172.146 218.237 171.435 218.084 170.089L218.078 170.032H219.614L219.627 170.077C219.773 170.61 220.3 170.921 221.042 170.921C221.906 170.921 222.413 170.521 222.413 169.95V169.937C222.413 169.321 221.931 169.01 221.036 169.01H220.039V167.944H221.03C221.836 167.944 222.217 167.614 222.217 167.042V167.03C222.217 166.528 221.829 166.147 221.049 166.147C220.338 166.147 219.862 166.471 219.766 166.973L219.76 167.004H218.262L218.268 166.954C218.427 165.741 219.398 164.922 221.099 164.922C222.744 164.922 223.759 165.665 223.759 166.839V166.852C223.759 167.582 223.296 168.147 222.547 168.318V168.426C223.512 168.617 223.981 169.175 223.981 169.95V169.962C223.981 171.251 222.845 172.146 221.061 172.146ZM228.963 172V170.896L231.972 167.823C233.216 166.566 233.565 166.103 233.565 165.398V165.379C233.565 164.535 232.987 163.926 232.035 163.926C231.064 163.926 230.41 164.567 230.41 165.513L230.404 165.538L228.88 165.532L228.874 165.513C228.874 163.805 230.207 162.612 232.118 162.612C233.901 162.612 235.184 163.697 235.184 165.24V165.259C235.184 166.3 234.682 167.125 233.013 168.731L231.178 170.508V170.642H235.323V172H228.963ZM240.417 172.229C238.239 172.229 236.932 170.381 236.932 167.423V167.411C236.932 164.453 238.239 162.612 240.417 162.612C242.594 162.612 243.914 164.453 243.914 167.411V167.423C243.914 170.381 242.594 172.229 240.417 172.229ZM240.417 170.902C241.585 170.902 242.264 169.594 242.264 167.423V167.411C242.264 165.24 241.585 163.945 240.417 163.945C239.249 163.945 238.582 165.24 238.582 167.411V167.423C238.582 169.594 239.249 170.902 240.417 170.902ZM250.584 172H249.074V165.062H251.086L253.136 169.893H253.25L255.307 165.062H257.281V172H255.77V167.265H255.65L253.739 171.689H252.609L250.705 167.265H250.584V172ZM261.27 168.998C261.137 170.997 260.521 172.063 259.112 172.063C258.826 172.063 258.617 172.019 258.515 171.987V170.629C258.585 170.648 258.756 170.673 258.934 170.673C259.569 170.673 259.791 169.867 259.854 168.871L260.096 165.062H265.072V172H263.492V166.287H261.467L261.27 168.998ZM271.549 172V169.036H268.623V172H267.042V165.062H268.623V167.811H271.549V165.062H273.13V172H271.549ZM277.997 170.597V169.854H279.229V168.674H277.997V167.931H279.229V163.031H282.517C284.288 163.031 285.443 164.211 285.443 165.849V165.862C285.443 167.506 284.243 168.674 282.453 168.674H280.828V169.854H283.304V170.597H280.828V171.81H279.229V170.597H277.997ZM280.828 167.398H282.053C283.221 167.398 283.818 166.827 283.818 165.875V165.862C283.818 164.922 283.228 164.345 282.06 164.345H280.828V167.398Z" fill="#333333" style="fill:#333333;fill:color(display-p3 0.2000 0.2000 0.2000);fill-opacity:1;"/>
<mask id="mask0_3_1105" style="mask-type:alpha" maskUnits="userSpaceOnUse" x="296" y="159" width="7" height="16">
<path d="M296.293 171.293C295.902 171.683 295.902 172.317 296.293 172.707C296.683 173.098 297.317 173.098 297.707 172.707L302.707 167.707C303.098 167.317 303.098 166.683 302.707 166.293L297.707 161.293C297.317 160.902 296.683 160.902 296.293 161.293C295.902 161.683 295.902 162.317 296.293 162.707L300.586 167L296.293 171.293Z" fill="black" style="fill:black;fill-opacity:1;"/>
</mask>
<g mask="url(#mask0_3_1105)">
<rect x="296" y="159" width="7" height="16" fill="#001024" fill-opacity="0.22" style="fill:#001024;fill:color(display-p3 0.0000 0.0627 0.1412);fill-opacity:0.22;"/>
</g>
</g>
<g filter="url(#filter0_d_3_1105)">
<rect x="105.5" y="229" width="64" height="64" rx="32" fill="white" style="fill:white;fill-opacity:1;" shape-rendering="crispEdges"/>
<mask id="mask1_3_1105" style="mask-type:alpha" maskUnits="userSpaceOnUse" x="127" y="250" width="21" height="22">
<path fill-rule="evenodd" clip-rule="evenodd" d="M137.5 250.619C136.764 250.619 136.167 251.216 136.167 251.952L136.167 266.886L129.634 260.352C129.118 259.837 128.282 259.837 127.767 260.352C127.251 260.868 127.251 261.704 127.767 262.219L136.557 271.01C137.078 271.53 137.922 271.53 138.443 271.01L147.234 262.219C147.749 261.704 147.749 260.868 147.234 260.352C146.718 259.837 145.882 259.837 145.367 260.352L138.834 266.886V251.952C138.834 251.216 138.237 250.619 137.5 250.619Z" fill="black" style="fill:black;fill-opacity:1;"/>
</mask>
<g mask="url(#mask1_3_1105)">
<rect x="121.5" y="245" width="32" height="32" fill="#333333" style="fill:#333333;fill:color(display-p3 0.2000 0.2000 0.2000);fill-opacity:1;"/>
</g>
</g>
<path d="M121.074 314V304.84H124.577C126.26 304.84 127.288 305.723 127.288 307.119V307.132C127.288 308.078 126.59 308.941 125.707 309.1V309.201C126.958 309.36 127.751 310.217 127.751 311.423V311.436C127.751 313.042 126.596 314 124.647 314H121.074ZM124.336 305.85H122.216V308.789H124.044C125.428 308.789 126.133 308.293 126.133 307.329V307.316C126.133 306.389 125.472 305.85 124.336 305.85ZM124.368 309.772H122.216V312.991H124.476C125.853 312.991 126.577 312.432 126.577 311.378V311.366C126.577 310.312 125.828 309.772 124.368 309.772ZM131.785 314.127C130.325 314.127 129.214 313.403 129.074 312.299L129.068 312.248H130.191L130.204 312.299C130.344 312.857 130.953 313.213 131.785 313.213C132.794 313.213 133.391 312.724 133.391 312.045V312.032C133.391 311.29 132.832 310.947 131.785 310.947H130.718V310.033H131.785C132.661 310.033 133.149 309.684 133.149 308.973V308.96C133.149 308.376 132.699 307.944 131.823 307.944C131.042 307.944 130.452 308.293 130.344 308.839L130.337 308.871H129.258L129.265 308.827C129.423 307.729 130.426 307.03 131.823 307.03C133.352 307.03 134.228 307.786 134.228 308.877V308.89C134.228 309.582 133.778 310.21 133.099 310.369V310.471C134 310.667 134.476 311.213 134.476 311.975V311.988C134.476 313.257 133.378 314.127 131.785 314.127ZM139.861 314V311.55H138.7L136.954 314H135.653L137.563 311.347C136.599 311.074 136.015 310.363 136.015 309.43V309.417C136.015 308.014 137.018 307.157 138.585 307.157H140.966V314H139.861ZM138.585 310.636H139.861V308.071H138.585C137.684 308.071 137.145 308.566 137.145 309.392V309.404C137.145 310.122 137.69 310.636 138.585 310.636ZM148.014 307.157V308.071H145.799V314H144.694V308.071H142.479V307.157H148.014ZM149.528 314V307.157H150.632V309.354H151.971C153.539 309.354 154.542 310.255 154.542 311.67V311.683C154.542 313.099 153.539 314 151.971 314H149.528ZM151.971 310.268H150.632V313.086H151.971C152.873 313.086 153.438 312.527 153.438 311.683V311.67C153.438 310.82 152.866 310.268 151.971 310.268ZM116.981 331.809H115.953V329.086H116.524C117.026 328.756 117.273 327.893 117.337 326.972L117.603 323.157H122.269V329.086H123.361V331.809H122.332V330H116.981V331.809ZM121.164 329.086V324.071H118.581L118.365 326.998C118.302 327.829 118.124 328.559 117.8 328.984V329.086H121.164ZM127.515 330.121C125.559 330.121 124.379 328.75 124.379 326.604V326.598C124.379 324.484 125.585 323.037 127.445 323.037C129.305 323.037 130.434 324.42 130.434 326.464V326.896H125.509C125.54 328.312 126.321 329.137 127.54 329.137C128.467 329.137 129.038 328.699 129.222 328.286L129.247 328.229H130.352L130.339 328.28C130.104 329.207 129.127 330.121 127.515 330.121ZM127.438 324.021C126.423 324.021 125.648 324.712 125.528 326.014H129.311C129.197 324.662 128.448 324.021 127.438 324.021ZM136.683 330V326.902H133.293V330H132.189V323.157H133.293V325.988H136.683V323.157H137.788V330H136.683ZM139.878 330V323.157H140.983V325.354H142.322C143.89 325.354 144.893 326.255 144.893 327.67V327.683C144.893 329.099 143.89 330 142.322 330H139.878ZM142.322 326.268H140.983V329.086H142.322C143.224 329.086 143.789 328.527 143.789 327.683V327.67C143.789 326.82 143.217 326.268 142.322 326.268ZM150.894 324.071H147.619V330H146.514V323.157H150.894V324.071ZM152.477 330V323.157H153.582V328.261H153.683L157.067 323.157H158.171V330H157.067V324.896H156.965L153.582 330H152.477Z" fill="#333333" style="fill:#333333;fill:color(display-p3 0.2000 0.2000 0.2000);fill-opacity:1;"/>
<g filter="url(#filter1_d_3_1105)">
<rect x="205.5" y="229" width="64" height="64" rx="32" fill="white" style="fill:white;fill-opacity:1;" shape-rendering="crispEdges"/>
<mask id="mask2_3_1105" style="mask-type:alpha" maskUnits="userSpaceOnUse" x="221" y="245" width="33" height="32">
<path opacity="0.4" fill-rule="evenodd" clip-rule="evenodd" d="M225.5 253.667C225.5 252.562 226.395 251.667 227.5 251.667H249.5V252.333C249.5 253.438 248.605 254.333 247.5 254.333H225.5V253.667ZM225.5 261.667C225.5 260.562 226.395 259.667 227.5 259.667H249.5V260.333C249.5 261.438 248.605 262.333 247.5 262.333H225.5V261.667ZM227.5 267.667C226.395 267.667 225.5 268.562 225.5 269.667V270.333H247.5C248.605 270.333 249.5 269.438 249.5 268.333V267.667H227.5Z" fill="black" style="fill:black;fill-opacity:1;"/>
<path fill-rule="evenodd" clip-rule="evenodd" d="M230.833 254.333H225.5V253.667C225.5 252.562 226.395 251.667 227.5 251.667H230.947C231.222 250.89 231.963 250.333 232.833 250.333H236.167V254.333H231.5H230.833ZM227.5 259.667C226.395 259.667 225.5 260.562 225.5 261.667V262.333H237.5H240.833H242.833V260.333V259.667V258.333H239.5C238.629 258.333 237.888 258.89 237.614 259.667H227.5ZM225.5 269.667C225.5 268.562 226.395 267.667 227.5 267.667H233.614C233.888 266.89 234.629 266.333 235.5 266.333H238.833V270.333H234.167H233.5H225.5V269.667Z" fill="black" style="fill:black;fill-opacity:1;"/>
</mask>
<g mask="url(#mask2_3_1105)">
<rect x="221.5" y="245" width="32" height="32" fill="#333333" style="fill:#333333;fill:color(display-p3 0.2000 0.2000 0.2000);fill-opacity:1;"/>
</g>
</g>
<path d="M205.233 314V304.84H206.376V308.801H211.403V304.84H212.546V314H211.403V309.83H206.376V314H205.233ZM216.668 314.121C215.366 314.121 214.383 313.333 214.383 312.089V312.077C214.383 310.858 215.284 310.153 216.877 310.058L218.839 309.938V309.315C218.839 308.471 218.324 308.014 217.302 308.014C216.484 308.014 215.944 308.319 215.766 308.852L215.76 308.871H214.655L214.662 308.833C214.84 307.76 215.881 307.037 217.341 307.037C219.01 307.037 219.943 307.894 219.943 309.315V314H218.839V312.991H218.737C218.305 313.721 217.588 314.121 216.668 314.121ZM215.512 312.064C215.512 312.756 216.103 313.162 216.896 313.162C218.02 313.162 218.839 312.426 218.839 311.448V310.826L217.01 310.94C215.969 311.004 215.512 311.372 215.512 312.051V312.064ZM224.808 314.121C222.891 314.121 221.666 312.73 221.666 310.56V310.547C221.666 308.42 222.885 307.037 224.802 307.037C226.465 307.037 227.461 307.995 227.664 309.214L227.671 309.252H226.573L226.566 309.233C226.395 308.56 225.785 308.014 224.802 308.014C223.57 308.014 222.796 309.004 222.796 310.547V310.56C222.796 312.134 223.583 313.143 224.802 313.143C225.722 313.143 226.306 312.737 226.56 311.975L226.573 311.937L227.664 311.931L227.652 312C227.372 313.238 226.452 314.121 224.808 314.121ZM233.964 307.157V308.071H231.748V314H230.644V308.071H228.429V307.157H233.964ZM235.483 316.285V307.157H236.588V308.249H236.689C237.108 307.487 237.87 307.037 238.822 307.037C240.555 307.037 241.691 308.439 241.691 310.572V310.585C241.691 312.73 240.561 314.121 238.822 314.121C237.883 314.121 237.064 313.651 236.689 312.921H236.588V316.285H235.483ZM238.568 313.143C239.819 313.143 240.561 312.178 240.561 310.585V310.572C240.561 308.979 239.819 308.014 238.568 308.014C237.324 308.014 236.562 308.992 236.562 310.572V310.585C236.562 312.166 237.324 313.143 238.568 313.143ZM246.277 314.121C244.328 314.121 243.122 312.775 243.122 310.585V310.572C243.122 308.376 244.328 307.037 246.277 307.037C248.226 307.037 249.432 308.376 249.432 310.572V310.585C249.432 312.775 248.226 314.121 246.277 314.121ZM246.277 313.143C247.572 313.143 248.302 312.197 248.302 310.585V310.572C248.302 308.954 247.572 308.014 246.277 308.014C244.982 308.014 244.252 308.954 244.252 310.572V310.585C244.252 312.197 244.982 313.143 246.277 313.143ZM251.186 314V307.157H252.291V312.261H252.392L255.776 307.157H256.88V314H255.776V308.896H255.674L252.291 314H251.186ZM263.935 307.157V308.071H261.719V314H260.615V308.071H258.4V307.157H263.935ZM265.448 314V307.157H266.553V309.354H267.892C269.46 309.354 270.463 310.255 270.463 311.67V311.683C270.463 313.099 269.46 314 267.892 314H265.448ZM267.892 310.268H266.553V313.086H267.892C268.793 313.086 269.358 312.527 269.358 311.683V311.67C269.358 310.82 268.787 310.268 267.892 310.268ZM220.553 327.321C220.407 329.207 219.823 330.063 218.681 330.063C218.446 330.063 218.268 330.025 218.179 329.994V328.997C218.236 329.016 218.408 329.042 218.573 329.042C219.201 329.042 219.455 328.248 219.525 327.232L219.817 323.157H224.292V330H223.187V324.071H220.807L220.553 327.321ZM226.383 330V323.157H227.487V328.261H227.589L230.972 323.157H232.077V330H230.972V324.896H230.871L227.487 330H226.383ZM235.278 330H234.174V323.157H235.513L237.951 328.464H238.052L240.502 323.157H241.785V330H240.68V325.131H240.56L238.401 329.81H237.551L235.399 325.131H235.278V330ZM243.882 330V323.157H244.986V328.261H245.088L248.471 323.157H249.576V330H248.471V324.896H248.37L244.986 330H243.882ZM256.631 323.157V324.071H254.415V330H253.311V324.071H251.095V323.157H256.631Z" fill="#333333" style="fill:#333333;fill:color(display-p3 0.2000 0.2000 0.2000);fill-opacity:1;"/>
<defs>
<filter id="filter0_d_3_1105" x="85.5" y="214" width="104" height="104" filterUnits="userSpaceOnUse" color-interpolation-filters="sRGB">
<feFlood flood-opacity="0" result="BackgroundImageFix"/>
<feColorMatrix in="SourceAlpha" type="matrix" values="0 0 0 0 0 0 0 0 0 0 0 0 0 0 0 0 0 0 127 0" result="hardAlpha"/>
<feOffset dy="5"/>
<feGaussianBlur stdDeviation="10"/>
<feComposite in2="hardAlpha" operator="out"/>
<feColorMatrix type="matrix" values="0 0 0 0 0 0 0 0 0 0 0 0 0 0 0 0 0 0 0.1 0"/>
<feBlend mode="normal" in2="BackgroundImageFix" result="effect1_dropShadow_3_1105"/>
<feBlend mode="normal" in="SourceGraphic" in2="effect1_dropShadow_3_1105" result="shape"/>
</filter>
<filter id="filter1_d_3_1105" x="185.5" y="214" width="104" height="104" filterUnits="userSpaceOnUse" color-interpolation-filters="sRGB">
<feFlood flood-opacity="0" result="BackgroundImageFix"/>
<feColorMatrix in="SourceAlpha" type="matrix" values="0 0 0 0 0 0 0 0 0 0 0 0 0 0 0 0 0 0 127 0" result="hardAlpha"/>
<feOffset dy="5"/>
<feGaussianBlur stdDeviation="10"/>
<feComposite in2="hardAlpha" operator="out"/>
<feColorMatrix type="matrix" values="0 0 0 0 0 0 0 0 0 0 0 0 0 0 0 0 0 0 0.1 0"/>
<feBlend mode="normal" in2="BackgroundImageFix" result="effect1_dropShadow_3_1105"/>
<feBlend mode="normal" in="SourceGraphic" in2="effect1_dropShadow_3_1105" result="shape"/>
</filter>
<linearGradient id="paint0_linear_3_1105" x1="175.012" y1="141" x2="176.494" y2="73.0394" gradientUnits="userSpaceOnUse">
<stop offset="0.219545" stop-color="#333333" style="stop-color:#333333;stop-color:color(display-p3 0.2000 0.2000 0.2000);stop-opacity:1;"/>
<stop offset="0.706187" stop-color="#333333" stop-opacity="0.8" style="stop-color:#333333;stop-color:color(display-p3 0.2000 0.2000 0.2000);stop-opacity:0.8;"/>
</linearGradient>
<clipPath id="clip0_3_1105">
<rect width="291" height="24" fill="white" style="fill:white;fill-opacity:1;" transform="translate(42 52)"/>
</clipPath>
<clipPath id="clip1_3_1105">
<rect width="289" height="57" fill="white" style="fill:white;fill-opacity:1;" transform="translate(43 84)"/>
</clipPath>
<clipPath id="clip2_3_1105">
<rect x="62" y="149" width="251" height="36" fill="white" style="fill:white;fill-opacity:1;"/>
</clipPath>
<clipPath id="clip3_3_1105">
<rect x="68" y="155" width="24" height="24" rx="12" fill="white" style="fill:white;fill-opacity:1;"/>
</clipPath>
</defs>
</svg>
