<svg width="375" height="88" viewBox="0 0 375 88" fill="none" xmlns="http://www.w3.org/2000/svg">
<g clip-path="url(#clip0_3_1106)">
<path opacity="0.3" fill-rule="evenodd" clip-rule="evenodd" d="M356 17H339C337.343 17 336 18.3431 336 20V26C336 27.6569 337.343 29 339 29H356C357.657 29 359 27.6569 359 26V20C359 18.3431 357.657 17 356 17ZM337 20C337 18.8954 337.895 18 339 18H356C357.105 18 358 18.8954 358 20V26C358 27.1046 357.105 28 356 28H339C337.895 28 337 27.1046 337 26V20ZM361 22C361 21.4477 360.552 21 360 21V25C360.552 25 361 24.5523 361 24V22Z" fill="black" style="fill:black;fill-opacity:1;"/>
<path fill-rule="evenodd" clip-rule="evenodd" d="M309.5 18H308.5C307.948 18 307.5 18.4477 307.5 19V27C307.5 27.5523 307.948 28 308.5 28H309.5C310.052 28 310.5 27.5523 310.5 27V19C310.5 18.4477 310.052 18 309.5 18ZM305 20H304C303.448 20 303 20.4477 303 21V27C303 27.5523 303.448 28 304 28H305C305.552 28 306 27.5523 306 27V21C306 20.4477 305.552 20 305 20ZM299.5 22H300.5C301.052 22 301.5 22.4477 301.5 23V27C301.5 27.5523 301.052 28 300.5 28H299.5C298.948 28 298.5 27.5523 298.5 27V23C298.5 22.4477 298.948 22 299.5 22ZM296 23.5H295C294.448 23.5 294 23.9477 294 24.5V27C294 27.5523 294.448 28 295 28H296C296.552 28 297 27.5523 297 27V24.5C297 23.9477 296.552 23.5 296 23.5ZM324.133 24.9395C324.772 24.9395 325.394 25.1075 325.941 25.4279L326.163 25.5577C326.331 25.6562 326.361 25.8865 326.223 26.024L324.329 27.9129C324.212 28.0289 324.024 28.0289 323.907 27.9129L322.026 26.0362C321.888 25.8993 321.917 25.6701 322.084 25.5709L322.303 25.4405C322.855 25.112 323.485 24.9395 324.133 24.9395ZM328.495 22.9748C327.251 21.9975 325.724 21.4697 324.133 21.4697C322.534 21.4697 321 22.0026 319.753 22.9886L319.578 23.1269C319.438 23.2372 319.426 23.4442 319.552 23.5697L320.682 24.697C320.787 24.8016 320.953 24.8133 321.072 24.7244L321.21 24.621C322.053 23.9893 323.073 23.6501 324.133 23.6501C325.186 23.6501 326.2 23.9851 327.04 24.6097L327.178 24.7121C327.297 24.8003 327.462 24.7883 327.567 24.684L328.697 23.5564C328.824 23.4305 328.811 23.223 328.671 23.1129L328.495 22.9748ZM324.133 18C326.657 18 329.072 18.8906 330.983 20.5229L331.146 20.6623C331.278 20.7749 331.285 20.9756 331.163 21.098L330.036 22.2219C329.926 22.3308 329.752 22.3385 329.634 22.2395L329.494 22.1228C327.989 20.8647 326.104 20.1804 324.133 20.1804C322.155 20.1804 320.263 20.8694 318.756 22.1354L318.617 22.2527C318.499 22.3521 318.324 22.3447 318.214 22.2356L317.087 21.1118C316.965 20.9895 316.972 20.7892 317.104 20.6765L317.266 20.5371C319.18 18.8959 321.601 18 324.133 18ZM339 19C338.448 19 338 19.4477 338 20V26C338 26.5523 338.448 27 339 27H356C356.552 27 357 26.5523 357 26V20C357 19.4477 356.552 19 356 19H339Z" fill="black" style="fill:black;fill-opacity:1;"/>
<path d="M37.8672 28.0889C40.5552 28.0889 42.1519 25.9868 42.1519 22.4272C42.1519 21.0869 41.8955 19.959 41.4048 19.0874C40.6943 17.7324 39.4712 17 37.9258 17C35.626 17 34 18.5454 34 20.7134C34 22.7495 35.4648 24.229 37.479 24.229C38.7168 24.229 39.7202 23.6504 40.2183 22.647H40.2402C40.2402 22.647 40.2695 22.647 40.2769 22.647C40.2915 22.647 40.3428 22.647 40.3428 22.647C40.3428 25.064 39.4272 26.5068 37.8818 26.5068C36.9736 26.5068 36.2705 26.0088 36.0288 25.2104H34.1465C34.4614 26.9463 35.9336 28.0889 37.8672 28.0889ZM37.9331 22.7275C36.7173 22.7275 35.853 21.8633 35.853 20.6548C35.853 19.4756 36.7612 18.5747 37.9404 18.5747C39.1196 18.5747 40.0278 19.4902 40.0278 20.6841C40.0278 21.8633 39.1416 22.7275 37.9331 22.7275Z" fill="black" style="fill:black;fill-opacity:1;"/>
<path d="M45.243 27.9863C45.9388 27.9863 46.4148 27.4883 46.4148 26.8291C46.4148 26.1626 45.9388 25.6719 45.243 25.6719C44.5545 25.6719 44.0711 26.1626 44.0711 26.8291C44.0711 27.4883 44.5545 27.9863 45.243 27.9863ZM45.243 22.4932C45.9388 22.4932 46.4148 22.0024 46.4148 21.3433C46.4148 20.6768 45.9388 20.186 45.243 20.186C44.5545 20.186 44.0711 20.6768 44.0711 21.3433C44.0711 22.0024 44.5545 22.4932 45.243 22.4932Z" fill="black" style="fill:black;fill-opacity:1;"/>
<path d="M53.2706 27.8325H55.0797V25.8623H56.5079V24.2656H55.0797V17.2637H52.4137C50.546 20.0762 49.0592 22.4272 48.107 24.1777V25.8623H53.2706V27.8325ZM49.8575 24.1997C51.088 22.0317 52.1866 20.2959 53.1974 18.8018H53.2999V24.3096H49.8575V24.1997Z" fill="black" style="fill:black;fill-opacity:1;"/>
<path d="M60.5365 27.8325H62.4262V17.2637H60.5438L57.7826 19.1973V21.0137L60.412 19.168H60.5365V27.8325Z" fill="black" style="fill:black;fill-opacity:1;"/>
</g>
<path d="M121.293 72.2158V70.9458C118.056 70.8628 115.865 69.0449 115.865 65.9902V65.9736C115.865 62.9189 118.073 61.1177 121.293 61.0181V59.8062H123.41V61.0181C126.656 61.1094 128.839 62.9272 128.839 65.9819V65.9985C128.839 69.0532 126.623 70.8462 123.41 70.9458V72.2158H121.293ZM118.048 65.9902C118.048 67.9077 119.318 69.103 121.318 69.186V62.7861C119.334 62.8691 118.048 64.0479 118.048 65.9736V65.9902ZM123.394 62.7861V69.186C125.361 69.0947 126.656 67.9243 126.656 65.9985V65.9819C126.656 64.0645 125.394 62.8608 123.394 62.7861ZM130.77 72V62.9272H132.812V69.0034H132.978L136.804 62.9272H138.846V72H136.804V65.8906H136.63L132.812 72H130.77ZM147.011 72V68.1235H143.184V72H141.117V62.9272H143.184V66.5215H147.011V62.9272H149.078V72H147.011ZM153.831 72.1494C152.104 72.1494 150.851 71.0869 150.851 69.4351V69.4185C150.851 67.7998 152.088 66.8535 154.296 66.7207L156.628 66.5796V65.7993C156.628 64.8945 156.039 64.3965 154.927 64.3965C153.98 64.3965 153.366 64.7368 153.159 65.3345L153.15 65.3677H151.2L151.208 65.293C151.407 63.7656 152.868 62.7529 155.026 62.7529C157.359 62.7529 158.67 63.8818 158.67 65.7993V72H156.628V70.7549H156.487C155.989 71.6348 155.026 72.1494 153.831 72.1494ZM152.893 69.3354C152.893 70.1074 153.549 70.564 154.462 70.564C155.707 70.564 156.628 69.7505 156.628 68.6714V67.9409L154.586 68.0737C153.433 68.1484 152.893 68.5718 152.893 69.3188V69.3354ZM166.794 72V68.1235H162.967V72H160.9V62.9272H162.967V66.5215H166.794V62.9272H168.86V72H166.794ZM175.033 72.1826C172.302 72.1826 170.692 70.4146 170.692 67.4512V67.4346C170.692 64.5044 172.294 62.7529 175.025 62.7529C177.357 62.7529 178.752 64.0479 178.984 65.9238V65.957H177.033L177.025 65.9321C176.834 65.0522 176.162 64.4214 175.033 64.4214C173.622 64.4214 172.792 65.5337 172.792 67.4346V67.4512C172.792 69.377 173.63 70.5059 175.033 70.5059C176.104 70.5059 176.76 70.0161 177.017 69.0615L177.033 69.0283L178.984 69.02L178.968 69.0864C178.669 70.9458 177.332 72.1826 175.033 72.1826ZM180.699 72V62.9272H182.741V69.0034H182.907L186.734 62.9272H188.776V72H186.734V65.8906H186.559L182.741 72H180.699ZM191.055 75.0132V62.9272H193.122V64.3467H193.263C193.761 63.3589 194.749 62.7778 196.019 62.7778C198.294 62.7778 199.746 64.5874 199.746 67.4595V67.4761C199.746 70.3647 198.318 72.1494 196.019 72.1494C194.774 72.1494 193.736 71.5352 193.263 70.5557H193.122V75.0132H191.055ZM195.372 70.4062C196.783 70.4062 197.638 69.2939 197.638 67.4761V67.4595C197.638 65.6333 196.783 64.521 195.372 64.521C193.969 64.521 193.097 65.6333 193.097 67.4512V67.4678C193.097 69.2856 193.969 70.4062 195.372 70.4062ZM205.504 72.1826C202.781 72.1826 201.137 70.4062 201.137 67.4678V67.4512C201.137 64.5376 202.806 62.7529 205.504 62.7529C208.21 62.7529 209.87 64.5293 209.87 67.4512V67.4678C209.87 70.4062 208.218 72.1826 205.504 72.1826ZM205.504 70.5059C206.94 70.5059 207.753 69.3853 207.753 67.4761V67.4595C207.753 65.5503 206.931 64.4214 205.504 64.4214C204.068 64.4214 203.246 65.5503 203.246 67.4595V67.4761C203.246 69.3853 204.068 70.5059 205.504 70.5059ZM211.693 72V62.9272H215.984C217.81 62.9272 218.881 63.8486 218.881 65.2432V65.2598C218.881 66.2061 218.225 67.0444 217.304 67.2021V67.3433C218.499 67.4761 219.288 68.3062 219.288 69.4019V69.4185C219.288 70.9624 218.059 72 216.042 72H211.693ZM213.735 66.6958H215.329C216.35 66.6958 216.848 66.2808 216.848 65.5254V65.5088C216.848 64.8198 216.408 64.355 215.495 64.355H213.735V66.6958ZM213.735 70.5723H215.669C216.665 70.5723 217.171 70.1074 217.171 69.3271V69.3105C217.171 68.4888 216.607 68.082 215.478 68.082H213.735V70.5723ZM223.626 72.1494C221.899 72.1494 220.646 71.0869 220.646 69.4351V69.4185C220.646 67.7998 221.883 66.8535 224.091 66.7207L226.423 66.5796V65.7993C226.423 64.8945 225.834 64.3965 224.722 64.3965C223.775 64.3965 223.161 64.7368 222.954 65.3345L222.945 65.3677H220.995L221.003 65.293C221.202 63.7656 222.663 62.7529 224.821 62.7529C227.154 62.7529 228.465 63.8818 228.465 65.7993V72H226.423V70.7549H226.282C225.784 71.6348 224.821 72.1494 223.626 72.1494ZM222.688 69.3354C222.688 70.1074 223.344 70.564 224.257 70.564C225.502 70.564 226.423 69.7505 226.423 68.6714V67.9409L224.381 68.0737C223.228 68.1484 222.688 68.5718 222.688 69.3188V69.3354ZM236.589 72V68.1235H232.762V72H230.695V62.9272H232.762V66.5215H236.589V62.9272H238.655V72H236.589ZM240.927 72V62.9272H242.969V69.0034H243.135L246.961 62.9272H249.003V72H246.961V65.8906H246.787L242.969 72H240.927ZM255.168 72.1826C252.47 72.1826 250.835 70.373 250.835 67.4844V67.4761C250.835 64.6206 252.486 62.7529 255.068 62.7529C257.649 62.7529 259.243 64.5625 259.243 67.3018V67.9824H252.901C252.926 69.6094 253.806 70.5557 255.209 70.5557C256.33 70.5557 256.969 69.9912 257.168 69.5762L257.193 69.5181H259.16L259.135 69.5928C258.845 70.7632 257.633 72.1826 255.168 72.1826ZM255.093 64.3716C253.939 64.3716 253.076 65.1519 252.918 66.5962H257.226C257.085 65.1104 256.247 64.3716 255.093 64.3716Z" fill="#333333" style="fill:#333333;fill:color(display-p3 0.2000 0.2000 0.2000);fill-opacity:1;"/>
<defs>
<clipPath id="clip0_3_1106">
<rect width="375" height="44" fill="white" style="fill:white;fill-opacity:1;"/>
</clipPath>
</defs>
</svg>
