<svg width="375" height="88" viewBox="0 0 375 88" fill="none" xmlns="http://www.w3.org/2000/svg">
<g clip-path="url(#clip0_3_589)">
<path opacity="0.3" fill-rule="evenodd" clip-rule="evenodd" d="M356 17H339C337.343 17 336 18.3431 336 20V26C336 27.6569 337.343 29 339 29H356C357.657 29 359 27.6569 359 26V20C359 18.3431 357.657 17 356 17ZM337 20C337 18.8954 337.895 18 339 18H356C357.105 18 358 18.8954 358 20V26C358 27.1046 357.105 28 356 28H339C337.895 28 337 27.1046 337 26V20ZM361 22C361 21.4477 360.552 21 360 21V25C360.552 25 361 24.5523 361 24V22Z" fill="black" style="fill:black;fill-opacity:1;"/>
<path fill-rule="evenodd" clip-rule="evenodd" d="M309.5 18H308.5C307.948 18 307.5 18.4477 307.5 19V27C307.5 27.5523 307.948 28 308.5 28H309.5C310.052 28 310.5 27.5523 310.5 27V19C310.5 18.4477 310.052 18 309.5 18ZM305 20H304C303.448 20 303 20.4477 303 21V27C303 27.5523 303.448 28 304 28H305C305.552 28 306 27.5523 306 27V21C306 20.4477 305.552 20 305 20ZM299.5 22H300.5C301.052 22 301.5 22.4477 301.5 23V27C301.5 27.5523 301.052 28 300.5 28H299.5C298.948 28 298.5 27.5523 298.5 27V23C298.5 22.4477 298.948 22 299.5 22ZM296 23.5H295C294.448 23.5 294 23.9477 294 24.5V27C294 27.5523 294.448 28 295 28H296C296.552 28 297 27.5523 297 27V24.5C297 23.9477 296.552 23.5 296 23.5ZM324.133 24.9395C324.772 24.9395 325.394 25.1075 325.941 25.4279L326.163 25.5577C326.331 25.6562 326.361 25.8865 326.223 26.024L324.329 27.9129C324.212 28.0289 324.024 28.0289 323.907 27.9129L322.026 26.0362C321.888 25.8993 321.917 25.6701 322.084 25.5709L322.303 25.4405C322.855 25.112 323.485 24.9395 324.133 24.9395ZM328.495 22.9748C327.251 21.9975 325.724 21.4697 324.133 21.4697C322.534 21.4697 321 22.0026 319.753 22.9886L319.578 23.1269C319.438 23.2372 319.426 23.4442 319.552 23.5697L320.682 24.697C320.787 24.8016 320.953 24.8133 321.072 24.7244L321.21 24.621C322.053 23.9893 323.073 23.6501 324.133 23.6501C325.186 23.6501 326.2 23.9851 327.04 24.6097L327.178 24.7121C327.297 24.8003 327.462 24.7883 327.567 24.684L328.697 23.5564C328.824 23.4305 328.811 23.223 328.671 23.1129L328.495 22.9748ZM324.133 18C326.657 18 329.072 18.8906 330.983 20.5229L331.146 20.6623C331.278 20.7749 331.285 20.9756 331.163 21.098L330.036 22.2219C329.926 22.3308 329.752 22.3385 329.634 22.2395L329.494 22.1228C327.989 20.8647 326.104 20.1804 324.133 20.1804C322.155 20.1804 320.263 20.8694 318.756 22.1354L318.617 22.2527C318.499 22.3521 318.324 22.3447 318.214 22.2356L317.087 21.1118C316.965 20.9895 316.972 20.7892 317.104 20.6765L317.266 20.5371C319.18 18.8959 321.601 18 324.133 18ZM339 19C338.448 19 338 19.4477 338 20V26C338 26.5523 338.448 27 339 27H356C356.552 27 357 26.5523 357 26V20C357 19.4477 356.552 19 356 19H339Z" fill="black" style="fill:black;fill-opacity:1;"/>
<path d="M37.8672 28.0889C40.5552 28.0889 42.1519 25.9868 42.1519 22.4272C42.1519 21.0869 41.8955 19.959 41.4048 19.0874C40.6943 17.7324 39.4712 17 37.9258 17C35.626 17 34 18.5454 34 20.7134C34 22.7495 35.4648 24.229 37.479 24.229C38.7168 24.229 39.7202 23.6504 40.2183 22.647H40.2402C40.2402 22.647 40.2695 22.647 40.2769 22.647C40.2915 22.647 40.3428 22.647 40.3428 22.647C40.3428 25.064 39.4272 26.5068 37.8818 26.5068C36.9736 26.5068 36.2705 26.0088 36.0288 25.2104H34.1465C34.4614 26.9463 35.9336 28.0889 37.8672 28.0889ZM37.9331 22.7275C36.7173 22.7275 35.853 21.8633 35.853 20.6548C35.853 19.4756 36.7612 18.5747 37.9404 18.5747C39.1196 18.5747 40.0278 19.4902 40.0278 20.6841C40.0278 21.8633 39.1416 22.7275 37.9331 22.7275Z" fill="black" style="fill:black;fill-opacity:1;"/>
<path d="M45.243 27.9863C45.9388 27.9863 46.4148 27.4883 46.4148 26.8291C46.4148 26.1626 45.9388 25.6719 45.243 25.6719C44.5545 25.6719 44.0711 26.1626 44.0711 26.8291C44.0711 27.4883 44.5545 27.9863 45.243 27.9863ZM45.243 22.4932C45.9388 22.4932 46.4148 22.0024 46.4148 21.3433C46.4148 20.6768 45.9388 20.186 45.243 20.186C44.5545 20.186 44.0711 20.6768 44.0711 21.3433C44.0711 22.0024 44.5545 22.4932 45.243 22.4932Z" fill="black" style="fill:black;fill-opacity:1;"/>
<path d="M53.2706 27.8325H55.0797V25.8623H56.5079V24.2656H55.0797V17.2637H52.4137C50.546 20.0762 49.0592 22.4272 48.107 24.1777V25.8623H53.2706V27.8325ZM49.8575 24.1997C51.088 22.0317 52.1866 20.2959 53.1974 18.8018H53.2999V24.3096H49.8575V24.1997Z" fill="black" style="fill:black;fill-opacity:1;"/>
<path d="M60.5365 27.8325H62.4262V17.2637H60.5438L57.7826 19.1973V21.0137L60.412 19.168H60.5365V27.8325Z" fill="black" style="fill:black;fill-opacity:1;"/>
</g>
<defs>
<clipPath id="clip0_3_589">
<rect width="375" height="44" fill="white" style="fill:white;fill-opacity:1;"/>
</clipPath>
</defs>
</svg>
